# xmcd CD database file
#
# Track frame offsets:
#	150
#	13509
#	26533
#	44385
#	62964
#	81328
#	95088
#	110154
#	124968
#	138170
#	154660
#	168409
#
# Disc length: 2483 seconds
#
# Revision: 0
# Processed by: cddbd v1.4PL0 Copyright (c) Steve Scherf et al.
# Submitted via: CDex 1.50
#
DISCID=a209b10c
DTITLE=Bastard Sons Of Johnny Cash - Distance Between
DYEAR=2002
DGENRE=Country
TTITLE0=1970 Monte Carlo
TTITLE1=Hard Times
TTITLE2=Distance Between
TTITLE3=Long Black Veil
TTITLE4=Burn Down
TTITLE5=Tears of Gold
TTITLE6=Wind It Up
TTITLE7=Marfa Lights
TTITLE8=Damage Is Done
TTITLE9=Where I Found You
TTITLE10=Last Goodbye
TTITLE11=Beautiful Cage
EXTD=YEAR: 2002
EXTT0=
EXTT1=
EXTT2=
EXTT3=
EXTT4=
EXTT5=
EXTT6=
EXTT7=
EXTT8=
EXTT9=
EXTT10=
EXTT11=
PLAYORDER=
